<svg width="16" height="19" viewBox="0 0 16 19" fill="none" xmlns="http://www.w3.org/2000/svg">
<g clip-path="url(#clip0_810_3255)">
<g clip-path="url(#clip1_810_3255)">
<g clip-path="url(#clip2_810_3255)">
<path fill-rule="evenodd" clip-rule="evenodd" d="M15.3366 11.6583C15.2401 11.7558 15.1084 11.8105 14.9712 11.8105C14.6851 11.8105 14.4537 11.579 14.4537 11.293C14.4494 7.72404 11.5576 4.83225 7.98872 4.8269C7.70265 4.8269 7.47122 4.59547 7.47122 4.3094C7.47122 4.0244 7.70265 3.79297 7.98872 3.79297C12.1287 3.79725 15.4834 7.1519 15.4887 11.293C15.4887 11.4301 15.4341 11.5619 15.3366 11.6583ZM11.8673 11.293C11.8651 9.15118 10.1305 7.41547 7.98872 7.41333C7.70265 7.41333 7.47122 7.1819 7.47122 6.8969C7.47122 6.61083 7.70265 6.3794 7.98872 6.3794C10.7016 6.38154 12.8991 8.58011 12.9023 11.293C12.9023 11.579 12.6709 11.8105 12.3848 11.8105C12.0998 11.8105 11.8673 11.579 11.8673 11.293ZM10.1369 14.4098C10.2955 14.4301 10.4551 14.3744 10.5676 14.2619L11.7259 13.1026C11.8962 12.9333 12.1609 12.9033 12.3655 13.0308L15.2294 14.8748C15.4555 15.0173 15.5359 15.3055 15.4169 15.5444L14.023 18.5058C13.9276 18.6976 13.723 18.8112 13.5087 18.7898C12.0344 18.6344 8.41086 17.9926 4.84943 14.4312C1.28908 10.8698 0.646218 7.24618 0.490861 5.7719C0.469432 5.55761 0.583004 5.35297 0.775861 5.25761L3.73729 3.86261C3.97515 3.74368 4.2655 3.82511 4.40693 4.05118L6.25193 6.91618C6.37943 7.11975 6.34943 7.38547 6.17908 7.55583L5.01979 8.71404C4.90622 8.82654 4.85158 8.98618 4.87193 9.14475C4.94479 9.71797 5.26836 11.1494 6.69979 12.5819C8.13229 14.0133 9.56372 14.3358 10.1369 14.4098Z" fill="#FF7010"/>
</g>
</g>
</g>
<defs>
<clipPath id="clip0_810_3255">
<rect width="15" height="15" fill="white" transform="translate(0.488281 3.79297)"/>
</clipPath>
<clipPath id="clip1_810_3255">
<rect width="15" height="15" fill="white" transform="translate(0.488281 3.79297)"/>
</clipPath>
<clipPath id="clip2_810_3255">
<rect width="15" height="15" fill="white" transform="translate(0.488281 3.79297)"/>
</clipPath>
</defs>
</svg>
