<svg width="25" height="25" viewBox="0 0 25 25" fill="none" xmlns="http://www.w3.org/2000/svg">
<g clip-path="url(#clip0_824_1903)">
<path d="M24.9893 12.793C24.9893 6.16561 19.6166 0.792969 12.9893 0.792969C6.3619 0.792969 0.989258 6.16561 0.989258 12.793C0.989258 18.4205 4.86382 23.1427 10.0905 24.4397V16.4602H7.61614V12.793H10.0905V11.2128C10.0905 7.12849 11.939 5.23537 15.9489 5.23537C16.7093 5.23537 18.0211 5.38465 18.5577 5.53345V8.85745C18.2745 8.82769 17.7825 8.81281 17.1715 8.81281C15.204 8.81281 14.4437 9.55825 14.4437 11.496V12.793H18.3633L17.6899 16.4602H14.4437V24.7051C20.3856 23.9875 24.9897 18.9283 24.9897 12.793H24.9893Z" fill="#0866FF"/>
<path d="M17.689 16.4592L18.3624 12.792H14.4428V11.495C14.4428 9.55725 15.2031 8.81182 17.1706 8.81182C17.7816 8.81182 18.2736 8.82669 18.5568 8.85645V5.53245C18.0202 5.38317 16.7084 5.23438 15.948 5.23438C11.9381 5.23438 10.0896 7.1275 10.0896 11.2118V12.792H7.61523V16.4592H10.0896V24.4387C11.018 24.6691 11.989 24.792 12.9884 24.792C13.4804 24.792 13.9656 24.7617 14.4423 24.7041V16.4592H17.6885H17.689Z" fill="white"/>
</g>
<defs>
<clipPath id="clip0_824_1903">
<rect width="24" height="24" fill="white" transform="translate(0.989258 0.792969)"/>
</clipPath>
</defs>
</svg>
