<svg width="16" height="18" viewBox="0 0 16 18" fill="none" xmlns="http://www.w3.org/2000/svg">
<g clip-path="url(#clip0_810_3246)">
<g clip-path="url(#clip1_810_3246)">
<g clip-path="url(#clip2_810_3246)">
<path fill-rule="evenodd" clip-rule="evenodd" d="M13.7644 15.5783C13.7444 15.7123 13.6634 15.8303 13.5444 15.9013C13.4704 15.9443 13.3864 15.9673 13.3014 15.9673C13.2494 15.9673 13.1984 15.9593 13.1494 15.9433L6.59743 13.7623L13.0404 6.20233L4.71443 13.1353L0.805432 11.8333C0.628432 11.7753 0.504432 11.6193 0.489432 11.4373C0.476432 11.2543 0.574432 11.0813 0.740432 10.9973L14.8024 3.84433C14.9594 3.76533 15.1474 3.77833 15.2914 3.87733C15.4354 3.97833 15.5094 4.14733 15.4834 4.31733L13.7644 15.5783ZM6.80343 17.6073C6.71343 17.7263 6.57243 17.7933 6.42643 17.7933C6.37743 17.7933 6.32843 17.7863 6.28043 17.7713C6.08743 17.7083 5.95743 17.5343 5.95743 17.3373V14.5143L8.49943 15.3603L6.80343 17.6073Z" fill="#FF7010"/>
</g>
</g>
</g>
<defs>
<clipPath id="clip0_810_3246">
<rect width="15" height="14" fill="white" transform="translate(0.488281 3.79297)"/>
</clipPath>
<clipPath id="clip1_810_3246">
<rect width="15" height="14" fill="white" transform="translate(0.488281 3.79297)"/>
</clipPath>
<clipPath id="clip2_810_3246">
<rect width="15" height="14" fill="white" transform="translate(0.488281 3.79297)"/>
</clipPath>
</defs>
</svg>
