<svg width="25" height="25" viewBox="0 0 25 25" fill="none" xmlns="http://www.w3.org/2000/svg">
<g clip-path="url(#clip0_824_1905)">
<path d="M24.5119 6.97594C24.3762 6.46535 24.1088 5.99936 23.7364 5.62459C23.364 5.24983 22.8997 4.97944 22.39 4.84048C20.5137 4.33594 13.0137 4.33594 13.0137 4.33594C13.0137 4.33594 5.51367 4.33594 3.63731 4.84048C3.1276 4.97944 2.66333 5.24983 2.29096 5.62459C1.91859 5.99936 1.65118 6.46535 1.51549 6.97594C1.01367 8.86048 1.01367 12.7905 1.01367 12.7905C1.01367 12.7905 1.01367 16.7205 1.51549 18.605C1.65118 19.1156 1.91859 19.5816 2.29096 19.9564C2.66333 20.3311 3.1276 20.6015 3.63731 20.7405C5.51367 21.245 13.0137 21.245 13.0137 21.245C13.0137 21.245 20.5137 21.245 22.39 20.7405C22.8997 20.6015 23.364 20.3311 23.7364 19.9564C24.1088 19.5816 24.3762 19.1156 24.5119 18.605C25.0137 16.7205 25.0137 12.7905 25.0137 12.7905C25.0137 12.7905 25.0137 8.86048 24.5119 6.97594Z" fill="#FF0302"/>
<path d="M10.5586 16.3638V9.22656L16.8313 12.7952L10.5586 16.3638Z" fill="#FEFEFE"/>
</g>
<defs>
<clipPath id="clip0_824_1905">
<rect width="24" height="24" fill="white" transform="translate(0.989258 0.792969)"/>
</clipPath>
</defs>
</svg>
